<svg width="512" height="512" viewBox="0 0 512 512" xmlns="http://www.w3.org/2000/svg">
  <defs>
    <linearGradient id="sunset" x1="0%" y1="0%" x2="100%" y2="100%">
      <stop offset="0%" stop-color="#ff6b35"/>
      <stop offset="50%" stop-color="#ff2d95"/>
      <stop offset="100%" stop-color="#b026ff"/>
    </linearGradient>
  </defs>
  <rect width="512" height="512" rx="96" fill="url(#sunset)"/>
  <g transform="translate(96, 96) scale(16)">
    <path d="M18 3a1 1 0 00-1.196-.98l-10 2A1 1 0 006 5v9.114A4.369 4.369 0 005 14c-1.657 0-3 .895-3 2s1.343 2 3 2 3-.895 3-2V7.82l8-1.6v5.894A4.37 4.37 0 0015 12c-1.657 0-3 .895-3 2s1.343 2 3 2 3-.895 3-2V3z" fill="white"/>
  </g>
</svg>
